<mxfile host="app.diagrams.net" modified="2024-04-16T13:49:14.336Z" agent="Mozilla/5.0 (Windows NT 10.0; Win64; x64) AppleWebKit/537.36 (KHTML, like Gecko) Chrome/120.0.0.0 Safari/537.36" version="24.2.5" etag="fZaH8kuWK6glBjJW32ui" type="github">
  <diagram name="第 1 页" id="wcbaWNJ5ZIe3b8rxF3w3">
    <mxGraphModel>
      <root>
        <mxCell id="0" />
        <mxCell id="1" parent="0" />
      </root>
    </mxGraphModel>
  </diagram>
</mxfile>
